HIERARCHY
ROOT joint_Root
{
	OFFSET 0.0 0.0 0.0
	CHANNELS 6 Xposition Yposition Zposition Zrotation Xrotation Yrotation 
	JOINT Hips
	{
		OFFSET 4.5925 91.4895 -427.239
		CHANNELS 6 Xposition Yposition Zposition Zrotation Xrotation Yrotation 
		JOINT Spine
		{
			OFFSET 15.7357 0.0 0.0
			CHANNELS 6 Xposition Yposition Zposition Zrotation Xrotation Yrotation 
			JOINT Chest
			{
				OFFSET 8.98455 -0.406207 0.0
				CHANNELS 6 Xposition Yposition Zposition Zrotation Xrotation Yrotation 
				JOINT Neck
				{
					OFFSET 16.3773 0.0 0.0
					CHANNELS 6 Xposition Yposition Zposition Zrotation Xrotation Yrotation 
					JOINT Head
					{
						OFFSET 6.45672 0.0 0.0
						CHANNELS 6 Xposition Yposition Zposition Zrotation Xrotation Yrotation 
						End Site
						{
							OFFSET 0.0 0.0 0.0
						}
					}
				}
				JOINT Shoulder_L
				{
					OFFSET 12.9942 -0.242716 4.98039
					CHANNELS 6 Xposition Yposition Zposition Zrotation Xrotation Yrotation 
					JOINT UpperArm_L
					{
						OFFSET 5.34809 0.0 0.0
						CHANNELS 6 Xposition Yposition Zposition Zrotation Xrotation Yrotation 
						JOINT LowerArm_L
						{
							OFFSET 24.3286 1.87007e-05 0.0
							CHANNELS 6 Xposition Yposition Zposition Zrotation Xrotation Yrotation 
							JOINT Hand_L
							{
								OFFSET 22.2916 0.0 0.0
								CHANNELS 6 Xposition Yposition Zposition Zrotation Xrotation Yrotation 
								End Site
								{
									OFFSET 0.0 0.0 0.0
								}
							}
						}
					}
				}
				JOINT Shoulder_R
				{
					OFFSET 12.9945 -0.242716 -4.98039
					CHANNELS 6 Xposition Yposition Zposition Zrotation Xrotation Yrotation 
					JOINT UpperArm_R
					{
						OFFSET -5.34813 0.0 0.0
						CHANNELS 6 Xposition Yposition Zposition Zrotation Xrotation Yrotation 
						JOINT LowerArm_R
						{
							OFFSET -24.3289 0.000322201 0.0
							CHANNELS 6 Xposition Yposition Zposition Zrotation Xrotation Yrotation 
							JOINT Hand_R
							{
								OFFSET -22.2915 -0.000108084 0.0
								CHANNELS 6 Xposition Yposition Zposition Zrotation Xrotation Yrotation 
								End Site
								{
									OFFSET 0.0 0.0 0.0
								}
							}
						}
					}
				}
			}
		}
		JOINT UpperLeg_L
		{
			OFFSET -2.19248 -6.46944 0.0
			CHANNELS 6 Xposition Yposition Zposition Zrotation Xrotation Yrotation 
			JOINT LowerLeg_L
			{
				OFFSET 39.0811 0.0 -1.23785e-05
				CHANNELS 6 Xposition Yposition Zposition Zrotation Xrotation Yrotation 
				JOINT Foot_L
				{
					OFFSET 40.9854 0.0 -1.26872e-05
					CHANNELS 6 Xposition Yposition Zposition Zrotation Xrotation Yrotation 
					JOINT Toes_L
					{
						OFFSET 11.7543 0.0 0.0
						CHANNELS 6 Xposition Yposition Zposition Zrotation Xrotation Yrotation 
						End Site
						{
							OFFSET 0.0 0.0 0.0
						}
					}
				}
			}
		}
		JOINT UpperLeg_R
		{
			OFFSET -2.19251 6.46944 0.0
			CHANNELS 6 Xposition Yposition Zposition Zrotation Xrotation Yrotation 
			JOINT LowerLeg_R
			{
				OFFSET -39.0811 -0.00228153 -0.0401928
				CHANNELS 6 Xposition Yposition Zposition Zrotation Xrotation Yrotation 
				JOINT Foot_R
				{
					OFFSET -40.9854 0.0 0.0
					CHANNELS 6 Xposition Yposition Zposition Zrotation Xrotation Yrotation 
					JOINT Toes_R
					{
						OFFSET -11.7543 0.0 0.0
						CHANNELS 6 Xposition Yposition Zposition Zrotation Xrotation Yrotation 
						End Site
						{
							OFFSET 0.0 0.0 0.0
						}
					}
				}
			}
		}
	}
}
MOTION
Frames:	7
Frame Time:	0.0333333
0.000000 0.000000 0.000000 0.000000 0.000000 -0.000000 2.998080 88.784100 550.844000 -87.888300 1.020540 178.875000 15.735700 0.000005 -0.000001 80.448700 81.115200 -79.630600 8.984550 -0.406207 -0.000000 9.788070 -2.916250 1.885050 16.377300 -0.000001 -0.000001 4.345510 -3.366010 1.145980 6.456720 -0.000001 -0.000000 -0.052166 -2.285970 2.603340 12.994200 -0.242716 4.980390 -90.199200 0.668778 -73.412700 5.348090 -0.000007 -0.000001 -59.038600 26.893100 -26.430400 24.328600 0.000019 0.000005 9.550130 11.520300 -40.111000 22.291600 -0.000001 0.000005 16.918900 5.233110 1.874760 12.994500 -0.242716 -4.980390 88.291400 8.198030 -78.184600 -5.348130 -0.000001 -0.000004 -64.890000 24.639200 -3.362330 -24.328900 0.000322 -0.000009 0.592205 1.852280 -17.764400 -22.291500 -0.000108 -0.000004 15.181800 5.354510 -1.513020 -2.192480 -6.469440 -0.000000 -176.975000 -11.719400 -4.605270 39.081100 -0.000007 -0.000012 -0.054533 0.082061 33.606300 40.985400 -0.000006 -0.000013 1.017290 -3.714820 -80.196700 11.754300 -0.000000 0.000003 -1.285780 -1.659700 -15.560200 -2.192510 6.469440 -0.000001 -174.186000 17.375200 153.555000 -39.081100 -0.002282 -0.040193 0.029246 -0.030082 40.804300 -40.985400 0.000008 0.000006 7.666160 1.254470 -65.673300 -11.754300 -0.000006 -0.000006 -0.008169 -0.089403 -20.213800
0.000000 0.000000 0.000000 0.000000 0.000000 -0.000000 3.265250 88.516900 549.231000 -88.115000 0.589331 179.115000 15.735700 0.000005 -0.000001 79.731200 80.948000 -78.809200 8.984550 -0.406207 -0.000000 10.085900 -3.188110 2.124480 16.377300 -0.000001 -0.000001 4.148450 -3.618580 1.221700 6.456720 -0.000001 -0.000000 -0.305496 -2.504540 2.407970 12.994200 -0.242716 4.980390 -90.242400 0.819638 -73.523300 5.348090 -0.000007 -0.000001 -58.462400 27.935400 -25.771300 24.328600 0.000019 0.000005 10.206600 12.147300 -40.551300 22.291600 -0.000001 0.000005 16.674400 5.230940 1.931320 12.994500 -0.242716 -4.980390 88.259000 8.286450 -78.091100 -5.348130 -0.000001 -0.000004 -65.354700 25.313700 -3.389290 -24.328900 0.000322 -0.000009 0.385719 1.143400 -18.692100 -22.291500 -0.000108 -0.000004 14.930200 5.362530 -1.757160 -2.192480 -6.469440 -0.000000 -176.771000 -11.075700 -4.614480 39.081100 -0.000007 -0.000012 0.001189 -0.001644 35.841900 40.985400 -0.000006 -0.000013 0.768825 -3.454870 -79.376900 11.754300 -0.000000 0.000003 -1.572330 -1.965070 -17.246500 -2.192510 6.469440 -0.000001 -174.900000 16.327100 154.977000 -39.081100 -0.002282 -0.040193 0.032156 -0.032364 41.746800 -40.985400 0.000008 0.000006 7.505830 0.264633 -68.803600 -11.754300 -0.000006 -0.000006 -0.009635 -0.100892 -20.683400
0.000000 0.000000 0.000000 0.000000 0.000000 -0.000000 3.645230 88.279600 547.630000 -88.335800 0.139110 179.556000 15.735700 0.000005 -0.000001 80.323800 80.776800 -79.304000 8.984550 -0.406207 -0.000000 10.457100 -3.055490 2.318340 16.377300 -0.000001 -0.000001 4.058990 -3.997620 1.328350 6.456720 -0.000001 -0.000000 -0.397954 -2.847880 2.240780 12.994200 -0.242716 4.980390 -90.366900 1.250000 -73.640700 5.348090 -0.000007 -0.000001 -57.924900 29.331600 -25.304100 24.328600 0.000019 0.000005 10.720000 12.972900 -40.141400 22.291600 -0.000001 0.000005 16.407100 5.237720 1.754870 12.994500 -0.242716 -4.980390 88.152300 8.760850 -78.041200 -5.348130 -0.000001 -0.000004 -65.200300 26.302600 -3.863480 -24.328900 0.000322 -0.000009 0.279702 0.804291 -19.243300 -22.291500 -0.000108 -0.000004 15.180500 5.374000 -2.109410 -2.192480 -6.469440 -0.000000 -176.349000 -10.481400 -6.454060 39.081100 -0.000007 -0.000012 0.012015 -0.013600 41.454500 40.985400 -0.000006 -0.000013 0.064661 -3.244220 -77.261200 11.754300 -0.000000 0.000003 -0.008530 -0.092315 -20.336500 -2.192510 6.469440 -0.000001 -175.441000 16.245500 156.208000 -39.081100 -0.002282 -0.040193 -0.070675 0.079751 42.836600 -40.985400 0.000008 0.000006 6.826970 -0.394680 -70.733900 -11.754300 -0.000006 -0.000006 -0.006576 -0.075981 -19.665900
0.000000 0.000000 0.000000 0.000000 0.000000 -0.000000 3.977270 88.082800 546.102000 -88.696900 -0.059295 -179.698000 15.735700 0.000005 -0.000001 82.157700 80.485900 -81.122200 8.984550 -0.406207 -0.000000 11.116300 -2.546440 2.318180 16.377300 -0.000001 -0.000001 3.894850 -4.252910 1.491400 6.456720 -0.000001 -0.000000 -0.588772 -3.299120 2.186740 12.994200 -0.242716 4.980390 -90.371500 1.278210 -73.791000 5.348090 -0.000007 -0.000001 -59.063100 30.170400 -24.226400 24.328600 0.000019 0.000005 11.176000 13.860900 -39.512400 22.291600 -0.000001 0.000005 15.665200 5.238490 1.736060 12.994500 -0.242716 -4.980390 88.171800 8.807090 -78.224300 -5.348130 -0.000001 -0.000004 -65.114400 27.153500 -5.002800 -24.328900 0.000322 -0.000009 0.207168 0.584243 -19.616400 -22.291500 -0.000108 -0.000004 15.179300 5.382300 -2.370140 -2.192480 -6.469440 -0.000000 -176.256000 -9.257880 -9.635330 39.081100 -0.000007 -0.000012 0.031804 -0.027298 49.356000 40.985400 -0.000006 -0.000013 -0.173201 -3.025670 -73.175900 11.754300 -0.000000 0.000003 -0.016469 -0.146888 -22.572300 -2.192510 6.469440 -0.000001 -176.166000 15.885100 157.745000 -39.081100 -0.002282 -0.040193 -0.102186 0.110121 43.759800 -40.985400 0.000008 0.000006 6.180270 -0.901729 -72.321900 -11.754300 -0.000006 -0.000006 -0.004455 -0.056094 -18.855100
0.000000 0.000000 0.000000 0.000000 0.000000 -0.000000 4.217880 87.966600 544.660000 -88.925000 -0.048089 -179.030000 15.735700 0.000005 -0.000001 84.241700 80.229200 -83.204100 8.984550 -0.406207 -0.000000 11.699900 -1.908790 2.270260 16.377300 -0.000001 -0.000001 3.776110 -4.377040 1.662460 6.456720 -0.000001 -0.000000 -0.752278 -3.559400 2.070090 12.994200 -0.242716 4.980390 -90.416400 1.427810 -73.738400 5.348090 -0.000007 -0.000001 -61.000500 30.422800 -22.312700 24.328600 0.000019 0.000005 11.178100 14.302800 -38.655900 22.291600 -0.000001 0.000005 15.158900 5.242020 1.642680 12.994500 -0.242716 -4.980390 88.261200 8.712160 -78.667400 -5.348130 -0.000001 -0.000004 -64.800200 27.957400 -6.696150 -24.328900 0.000322 -0.000009 0.212488 0.590906 -19.869200 -22.291500 -0.000108 -0.000004 15.448400 5.374670 -2.131540 -2.192480 -6.469440 -0.000000 -176.277000 -8.102530 -13.216400 39.081100 -0.000007 -0.000012 0.048514 -0.031925 56.649400 40.985400 -0.000006 -0.000013 0.554377 -3.733660 -68.608100 11.754300 -0.000000 0.000003 -0.006457 -0.074939 -19.627100 -2.192510 6.469440 -0.000001 -176.806000 16.253100 159.406000 -39.081100 -0.002282 -0.040193 -0.157367 0.165222 44.193300 -40.985400 0.000008 0.000006 5.741000 -0.565930 -73.684200 -11.754300 -0.000006 -0.000006 -0.003859 -0.049964 -18.605400
0.000000 0.000000 0.000000 0.000000 0.000000 -0.000000 4.331910 87.997100 543.224000 -89.144300 0.119169 -178.667000 15.735700 0.000005 -0.000001 86.199200 80.092800 -85.215100 8.984550 -0.406207 -0.000000 12.018700 -1.265530 2.101000 16.377300 -0.000001 -0.000001 3.568950 -4.309260 1.714800 6.456720 -0.000001 -0.000000 -0.702039 -3.698560 2.064050 12.994200 -0.242716 4.980390 -90.505000 1.726620 -73.695800 5.348090 -0.000007 -0.000001 -63.265200 30.427900 -19.633200 24.328600 0.000019 0.000005 10.504600 14.022700 -37.424400 22.291600 -0.000001 0.000005 15.391400 5.240240 1.687290 12.994500 -0.242716 -4.980390 88.295000 8.780860 -78.966400 -5.348130 -0.000001 -0.000004 -63.717200 29.013200 -9.091370 -24.328900 0.000322 -0.000009 0.233007 0.643229 -19.996200 -22.291500 -0.000108 -0.000004 15.648900 5.379340 -2.278080 -2.192480 -6.469440 -0.000000 -176.398000 -7.485790 -15.741800 39.081100 -0.000007 -0.000012 0.050762 -0.028902 60.340200 40.985400 -0.000006 -0.000013 0.338818 -4.004140 -69.084900 11.754300 -0.000000 0.000003 -0.001628 -0.023957 -17.550900 -2.192510 6.469440 -0.000001 -177.495000 16.864700 161.076000 -39.081100 -0.002282 -0.040193 -0.213749 0.225091 43.953900 -40.985400 0.000008 0.000006 5.140190 0.263050 -74.676900 -11.754300 -0.000006 -0.000006 -0.003465 -0.045759 -18.434200
0.000000 0.000000 0.000000 0.000000 0.000000 -0.000000 4.375230 88.292600 541.897000 -89.484700 0.471190 -178.771000 15.735700 0.000005 -0.000001 88.069100 80.133600 -87.240900 8.984550 -0.406207 -0.000000 11.961100 -0.628874 1.721860 16.377300 -0.000001 -0.000001 3.406440 -4.330990 1.822120 6.456720 -0.000001 -0.000000 -0.719567 -3.863410 1.934700 12.994200 -0.242716 4.980390 -90.607000 2.061450 -73.590300 5.348090 -0.000007 -0.000001 -65.357300 30.477300 -16.777700 24.328600 0.000019 0.000005 9.791380 14.058300 -35.391800 22.291600 -0.000001 0.000005 14.904000 5.243260 1.610510 12.994500 -0.242716 -4.980390 88.294300 8.944600 -79.157300 -5.348130 -0.000001 -0.000004 -62.437700 29.464200 -11.472600 -24.328900 0.000322 -0.000009 0.584164 1.547300 -20.713700 -22.291500 -0.000108 -0.000004 15.992500 5.391510 -2.665510 -2.192480 -6.469440 -0.000000 -176.853000 -7.261270 -17.997800 39.081100 -0.000007 -0.000012 0.044555 -0.025768 59.952900 40.985400 -0.000006 -0.000013 0.753791 -4.316660 -70.126300 11.754300 -0.000000 0.000003 -0.001636 -0.024074 -17.555700 -2.192510 6.469440 -0.000001 -178.081000 17.050400 162.622000 -39.081100 -0.002282 -0.040193 -0.185688 0.204322 42.763000 -40.985400 0.000008 0.000006 5.454050 0.769663 -75.114900 -11.754300 -0.000006 -0.000006 -0.003468 -0.045790 -18.435500
